<?xml version="1.0" standalone="no"?>
<!DOCTYPE svg PUBLIC "-//W3C//DTD SVG 20010904//EN"
 "http://www.w3.org/TR/2001/REC-SVG-20010904/DTD/svg10.dtd">
<svg version="1.0" xmlns="http://www.w3.org/2000/svg"
 width="502.000000pt" height="502.000000pt" viewBox="0 0 502.000000 502.000000"
 preserveAspectRatio="xMidYMid meet">
<metadata>
Created by potrace 1.11, written by Peter Selinger 2001-2013
</metadata>
<g transform="translate(0.000000,502.000000) scale(0.100000,-0.100000)"
fill="#000000" stroke="none">
<path d="M1925 4430 c-319 -320 -579 -586 -577 -593 4 -14 1154 -1166 1165
-1167 4 0 271 264 594 586 l586 585 -584 584 c-321 322 -589 585 -594 585 -6
0 -271 -261 -590 -580z"/>
<path d="M3264 3131 c-313 -313 -577 -577 -586 -588 -17 -19 -1 -36 567 -604
322 -321 589 -583 593 -582 9 2 1172 1162 1172 1169 0 5 -1169 1174 -1173
1174 -2 0 -260 -256 -573 -569z"/>
<path d="M598 3099 c-318 -318 -578 -584 -578 -590 0 -12 1155 -1169 1167
-1169 5 0 271 263 593 585 l585 585 -585 585 c-322 322 -589 585 -595 584 -5
0 -270 -261 -587 -580z"/>
<path d="M1923 1765 c-581 -582 -585 -586 -567 -607 24 -26 1115 -1117 1141
-1140 18 -17 40 4 607 571 l588 588 -587 586 c-323 323 -589 587 -592 587 -2
0 -268 -263 -590 -585z"/>
</g>
</svg>
